<?xml version="1.0" standalone="no"?>
<!DOCTYPE svg PUBLIC "-//W3C//DTD SVG 20010904//EN"
 "http://www.w3.org/TR/2001/REC-SVG-20010904/DTD/svg10.dtd">
<svg version="1.0" xmlns="http://www.w3.org/2000/svg"
 width="128.000000pt" height="128.000000pt" viewBox="0 0 128.000000 128.000000"
 preserveAspectRatio="xMidYMid meet">
<metadata>
Created by potrace 1.10, written by Peter Selinger 2001-2011
</metadata>
<g transform="translate(0.000000,128.000000) scale(0.100000,-0.100000)"
fill="#000000" stroke="none">
<path d="M501 1265 c-178 -39 -348 -172 -429 -336 -127 -256 -81 -540 118
-739 251 -252 649 -252 900 0 252 251 252 649 0 900 -155 156 -375 221 -589
175z m156 -241 c8 -21 -13 -42 -28 -27 -13 13 -5 43 11 43 6 0 13 -7 17 -16z
m-211 -15 c10 -17 -13 -36 -27 -22 -12 12 -4 33 11 33 5 0 12 -5 16 -11z m420
0 c10 -17 -13 -36 -27 -22 -12 12 -4 33 11 33 5 0 12 -5 16 -11z m-358 -106
c3 -19 -1 -23 -22 -23 -21 0 -26 5 -26 26 0 21 4 25 23 22 14 -2 23 -11 25
-25z m310 1 c2 -12 -4 -24 -12 -27 -20 -8 -47 19 -39 39 8 22 47 13 51 -12z
m-153 -29 c0 -35 -31 -47 -51 -20 -18 25 0 57 29 53 17 -2 22 -10 22 -33z
m-340 -50 c0 -28 -29 -25 -33 3 -3 19 0 23 15 20 10 -2 18 -12 18 -23z m665 5
c0 -13 -7 -20 -20 -20 -13 0 -20 7 -20 20 0 13 7 20 20 20 13 0 20 -7 20 -20z
m-372 -38 c6 -9 12 -24 12 -34 0 -24 -35 -58 -60 -58 -25 0 -60 34 -60 58 1
53 74 77 108 34z m140 1 c6 -9 12 -25 12 -35 0 -24 -35 -58 -60 -58 -11 0 -29
9 -40 20 -26 26 -25 55 1 81 24 24 65 20 87 -8z m-299 -17 c23 -28 -17 -68
-45 -45 -15 12 -19 41 -7 52 11 12 40 8 52 -7z m419 -10 c6 -27 -25 -48 -49
-35 -22 11 -24 30 -7 47 18 18 52 10 56 -12z m-338 -86 c11 -11 20 -29 20 -40
0 -26 -34 -60 -60 -60 -11 0 -29 9 -40 20 -11 11 -20 29 -20 40 0 11 9 29 20
40 11 11 29 20 40 20 11 0 29 -9 40 -20z m280 0 c11 -11 20 -29 20 -40 0 -26
-34 -60 -60 -60 -11 0 -29 9 -40 20 -11 11 -20 29 -20 40 0 11 9 29 20 40 11
11 29 20 40 20 11 0 29 -9 40 -20z m-470 -25 c10 -12 10 -18 0 -30 -16 -19
-39 -19 -46 0 -6 15 11 45 26 45 4 0 13 -7 20 -15z m627 -1 c3 -8 -2 -23 -11
-32 -15 -15 -17 -15 -32 0 -21 21 -11 48 16 48 11 0 23 -7 27 -16z m-741 -5
c10 -17 -13 -36 -27 -22 -12 12 -4 33 11 33 5 0 12 -5 16 -11z m840 0 c10 -17
-13 -36 -27 -22 -12 12 -4 33 11 33 5 0 12 -5 16 -11z m-466 -89 c11 -11 20
-29 20 -40 0 -21 -33 -60 -51 -60 -15 0 -53 21 -61 34 -21 31 12 86 52 86 11
0 29 -9 40 -20z m140 0 c32 -32 25 -66 -17 -89 -39 -20 -83 9 -83 55 0 21 37
54 60 54 11 0 29 -9 40 -20z m-295 -16 c18 -18 16 -33 -7 -47 -35 -22 -66 21
-36 51 16 16 23 15 43 -4z m418 -5 c23 -37 -25 -68 -52 -35 -9 11 -10 20 -1
36 13 24 38 23 53 -1z m-543 -90 c0 -12 -7 -19 -20 -19 -19 0 -28 28 -14 43
11 11 34 -5 34 -24z m658 3 c2 -14 -2 -22 -12 -22 -19 0 -29 17 -22 36 8 22
30 12 34 -14z m-334 -18 c24 -9 20 -51 -5 -59 -31 -10 -55 16 -40 44 12 22 20
25 45 15z m164 -58 c-2 -13 -10 -21 -23 -21 -23 0 -33 34 -14 45 20 13 40 -1
37 -24z m-308 -2 c0 -21 -4 -25 -22 -22 -15 2 -24 11 -26 26 -3 18 1 22 22 22
21 0 26 -5 26 -26z m-64 -85 c10 -17 -13 -36 -27 -22 -12 12 -4 33 11 33 5 0
12 -5 16 -11z m420 0 c3 -6 2 -15 -2 -19 -12 -12 -38 5 -30 19 9 14 23 14 32
0z m-208 -22 c4 -22 -27 -35 -38 -16 -10 15 7 42 24 36 6 -2 12 -11 14 -20z"/>
</g>
</svg>
